<svg width="39" height="33" viewBox="0 0 39 33" fill="none" xmlns="http://www.w3.org/2000/svg">
<path d="M7.3098 12.7927V23.5123C7.3098 24.1524 7.3098 24.4724 7.40726 24.755C7.49345 25.0049 7.63411 25.2325 7.81907 25.4213C8.02822 25.6349 8.3145 25.778 8.88703 26.0643L18.5167 30.8791C18.9846 31.1131 19.2185 31.23 19.4639 31.2761C19.6812 31.3168 19.9043 31.3168 20.1216 31.2761C20.3669 31.23 20.6009 31.113 21.0688 30.8791L30.6985 26.0643C31.271 25.778 31.5573 25.6349 31.7664 25.4213C31.9514 25.2325 32.092 25.0049 32.1782 24.755C32.2757 24.4724 32.2757 24.1524 32.2757 23.5123V12.7927M1.95996 10.1178L19.1547 1.5204C19.3887 1.40343 19.5056 1.34495 19.6283 1.32193C19.737 1.30154 19.8485 1.30154 19.9572 1.32193C20.0799 1.34495 20.1968 1.40343 20.4308 1.5204L37.6255 10.1178L20.4308 18.7152C20.1968 18.8321 20.0799 18.8906 19.9572 18.9136C19.8485 18.934 19.737 18.934 19.6283 18.9136C19.5056 18.8906 19.3887 18.8321 19.1547 18.7152L1.95996 10.1178Z" stroke="black" stroke-width="2" stroke-linecap="round" stroke-linejoin="round"/>
</svg>
