<svg width="381" height="120" viewBox="0 0 381 120" fill="none" xmlns="http://www.w3.org/2000/svg">
<g clip-path="url(#clip0_201_1292)">
<path d="M100 86.0464L108.332 33.0232H137.946C143.429 33.0232 145.766 34.2736 144.743 40.8094L138.825 78.2602C137.801 84.796 135.098 86.0464 129.615 86.0464H100ZM135.533 43.6708C135.823 41.5382 135.457 41.4692 133.632 41.4692H115.793L110.088 77.6005H127.927C129.974 77.6005 130.195 77.5238 130.485 75.4679L135.533 43.6708Z" fill="#3D3E45"/>
<path d="M154.243 86.0464C148.76 86.0464 146.347 84.796 147.37 78.2601L151.318 53.4362C152.342 46.9003 155.121 45.6499 160.604 45.6499H178.367C183.85 45.6499 186.187 46.9003 185.164 53.4362L183.698 62.6186C182.674 69.1544 179.895 70.4048 174.411 70.4048H157.374L156.572 75.3988C156.282 77.5314 156.717 77.6004 158.543 77.6004H179.742L178.428 86.0464H154.228H154.243ZM175.954 56.3052C176.244 54.1726 175.809 54.1036 173.984 54.1036H162.216C160.391 54.1036 159.948 54.1803 159.657 56.3052L158.711 61.9588H172.747C174.572 61.9588 175.083 61.8821 175.381 59.7572L175.969 56.3052H175.954Z" fill="#3D3E45"/>
<path d="M195.84 86.0465L189.921 45.6577H199.207L202.865 76.1353L216.245 45.6577H225.386L206.813 86.0465H195.847H195.84Z" fill="#3D3E45"/>
<path d="M232.098 86.0464C226.615 86.0464 224.202 84.796 225.225 78.2602L231.144 40.8094C232.167 34.2736 234.947 33.0232 240.43 33.0232H260.751C266.234 33.0232 268.571 34.2736 267.547 40.8094L266.303 48.8105H257.528L258.33 43.6708C258.62 41.5382 258.254 41.4692 256.428 41.4692H242.102C240.277 41.4692 239.765 41.5459 239.467 43.6708L234.42 75.3988C234.129 77.5314 234.565 77.6005 236.39 77.6005H250.716C252.763 77.6005 252.984 77.5238 253.274 75.4679L254.153 70.2515H262.927L261.614 78.2525C260.59 84.7884 257.887 86.0388 252.404 86.0388H232.083L232.098 86.0464Z" fill="#3D3E45"/>
<path d="M317.117 86.0464C311.634 86.0464 309.221 84.796 310.244 78.2601L311.779 68.5637C312.802 62.0279 315.582 60.7775 321.065 60.7775H338.102L338.835 56.2975C339.126 54.1649 338.69 54.0959 336.865 54.0959H314.856L316.246 45.6499H341.249C346.732 45.6499 349.068 46.9003 348.045 53.4362L344.097 78.2601C343.074 84.796 340.37 86.0464 334.887 86.0464H317.125H317.117ZM336.781 69.2311H322.745C320.92 69.2311 320.477 69.3078 320.11 71.4328L319.454 75.3988C319.163 77.5314 319.599 77.6004 321.424 77.6004H333.192C335.017 77.6004 335.46 77.5237 335.75 75.3988L336.774 69.2311H336.781Z" fill="#3D3E45"/>
<path d="M300.08 45.6576H283.042L285.005 33.0232H276.223L267.906 86.0464H276.681L281.652 54.1036H295.689C297.514 54.1036 297.957 54.1803 297.659 56.3052L292.978 86.0464H301.752L306.869 53.4362C307.892 46.9004 305.555 45.65 300.072 45.65L300.08 45.6576Z" fill="#3D3E45"/>
<path d="M372.07 33.0232H363.295L361.34 45.6576H354.689L353.299 54.1036H359.951L356.148 78.2679C355.124 84.8037 357.537 86.0541 363.021 86.0541H370.84L372.154 77.6081H367.328C365.502 77.6081 365.059 77.5314 365.357 75.4065L368.717 54.1113H375.812L377.202 45.6653H370.107L372.062 33.0309L372.07 33.0232Z" fill="#3D3E45"/>
</g>
<g clip-path="url(#clip1_201_1292)">
<path d="M11.6272 82.8992C13.0498 81.7002 14.527 80.6411 16.0314 79.7165C16.3454 79.5245 16.2253 79.0388 15.8594 79.0169C14.7208 78.951 13.5631 78.9401 12.389 78.984C11.9549 79.0004 11.589 78.6574 11.589 78.2185V76.1085C11.589 67.8225 18.2759 61.1032 26.5219 61.1032H53.0128C57.7693 61.1032 62.0042 63.3366 64.7374 66.8156C68.3634 66.4534 71.5717 65.2819 74.7991 62.7906C72.653 58.9741 69.4229 55.8545 65.5292 53.8516C69.5293 45.0909 76.4674 28.7521 76.3118 21.1328C76.1098 11.3323 68.186 7.50207 63.9046 6.8134C59.6615 5.89974 50.8967 6.5939 47.1833 15.6564C44.1579 23.0397 44.9497 42.1826 45.545 51.4014H33.9924C34.5876 42.1798 35.3795 23.0397 32.3541 15.6564C28.638 6.59116 19.8732 5.89974 15.6301 6.8134C11.346 7.50207 3.42217 11.3323 3.22285 21.1328C3.06721 28.7521 10.008 45.0964 14.0082 53.8571C6.79702 57.5665 1.86035 65.1008 1.86035 73.7983V84.1147C1.86035 87.0203 2.4119 89.7969 3.41398 92.3458C5.81133 88.5842 8.60732 85.4344 11.6272 82.8992ZM53.7473 18.3699C54.8804 15.9746 56.3822 14.4574 58.7331 13.9059C60.5898 13.4696 62.2527 13.7577 62.4711 13.7989L62.5394 13.8208L62.7223 13.8455C62.8971 13.8785 64.579 14.2077 66.1763 15.3024C68.1696 16.6715 69.1635 18.6251 69.2181 21.2755C69.259 23.2126 68.5109 28.4421 63.0527 41.6914C61.4963 45.4723 59.9236 49.0034 58.7113 51.6484C57.8757 51.4371 56.4532 51.4014 56.4532 51.4014C56.4532 51.4014 64.4452 29.1609 62.2336 25.1633C59.5086 20.2384 52.6442 22.1398 52.6442 22.1398C52.6442 22.1398 52.95 20.0573 53.75 18.3672L53.7473 18.3699ZM24.6269 51.4014C24.6269 51.4014 25.0966 27.6327 21.1292 24.1372C15.6933 19.6321 10.7016 24.2771 10.7016 24.2771C10.3848 22.6912 10.3084 21.934 10.3193 21.2782C10.3739 18.6278 11.3678 16.6715 13.361 15.3052C14.9338 14.2242 16.5885 13.8894 16.8069 13.8483H16.8779L17.0554 13.8016C17.2274 13.7687 18.9148 13.4642 20.8016 13.9059C23.1525 14.4574 24.7826 15.917 25.7874 18.3699C26.5219 20.1615 27.7042 25.3087 27.3874 39.6446C27.2864 44.1718 27.057 48.4245 26.8659 51.4014H24.6269Z" fill="#3D3E45"/>
<path d="M76.1205 65.5674C73.7232 69.329 70.9272 72.4788 67.9073 75.014C66.4847 76.213 65.0075 77.272 63.503 78.1967C63.189 78.3887 63.3092 78.8771 63.6751 78.8963C64.8137 78.9622 65.9714 78.9731 67.1455 78.9292C67.5796 78.9128 67.9455 79.2558 67.9455 79.6947V81.8047C67.9455 90.0907 61.2586 96.81 53.0126 96.81H26.5217C21.7652 96.81 17.5303 94.5766 14.7971 91.0976C11.171 91.4598 7.96276 92.6313 4.73535 95.1226C8.56073 101.922 15.821 106.512 24.1489 106.512H55.3854C67.6943 106.512 77.6741 96.4835 77.6741 84.1149V73.7985C77.6741 70.8929 77.1226 68.1163 76.1205 65.5674Z" fill="#3D3E45"/>
<path d="M27.349 85.9037C30.3379 85.9037 32.7608 82.7934 32.7608 78.9566C32.7608 75.1198 30.3379 72.0095 27.349 72.0095C24.3602 72.0095 21.9373 75.1198 21.9373 78.9566C21.9373 82.7934 24.3602 85.9037 27.349 85.9037Z" fill="#E8471C"/>
<path d="M52.1881 85.9037C55.177 85.9037 57.5999 82.7934 57.5999 78.9566C57.5999 75.1198 55.177 72.0095 52.1881 72.0095C49.1993 72.0095 46.7764 75.1198 46.7764 78.9566C46.7764 82.7934 49.1993 85.9037 52.1881 85.9037Z" fill="#E8471C"/>
</g>
<defs>
<clipPath id="clip0_201_1292">
<rect width="277.209" height="53.0233" fill="white" transform="translate(100 33.0232)"/>
</clipPath>
<clipPath id="clip1_201_1292">
<rect width="75.8139" height="100" fill="white" transform="translate(1.86035 6.51172)"/>
</clipPath>
</defs>
</svg>
