<svg xmlns="http://www.w3.org/2000/svg" width="105" height="82" viewBox="0 0 105 82" fill="none">
  <g clip-path="url(#clip0_67_630)">
    <path d="M19.9857 42.0883H13.8677V12.1411H28.9127V18.2591H19.9857V24.0438H28.9127V30.1618H19.9857V42.0883Z" fill="black"/>
    <path d="M37.8397 35.9466H43.6244V18.2592H37.8397V35.9466ZM34.6974 42.0884V39.0889H31.7217V15.1169H34.6974V12.1412H46.7667V15.1169H49.7424V39.0889H46.7667V42.0884H34.6974ZM31.8883 12.2364H34.6974V15.1169H31.8883V12.2364ZM46.7667 12.1412L49.7424 12.1411V15.1169H46.7667V12.1412ZM46.7667 39.0889H49.7424V41.9931H46.7667V39.0889ZM31.7217 39.0889H34.6974V42.0884L31.7217 42.0883V39.0889Z" fill="black"/>
    <path d="M67.5963 42.0883H52.5513V35.9465H64.454V30.1618H55.5269V27.1861H52.5513V15.1168H55.5269V12.1411H70.572V18.2591H58.6693V24.0438H67.5963V27.0195H70.572V39.0889H67.5963V42.0883ZM52.7179 12.2363H55.5269V15.1168H52.7179V12.2363ZM52.5513 27.1861H55.5269V30.1618H52.5513L52.5513 27.1861ZM67.5963 24.0438H70.572L70.572 27.0195H67.5963V24.0438ZM67.5963 39.0889H70.572L70.572 41.9931H67.5963L67.5963 39.0889Z" fill="black"/>
    <path d="M88.4264 42.0883H73.3813V35.9465H85.284V30.1618H76.357V27.1861H73.3813V15.1168H76.357V12.1411H91.402V18.2591H79.4993V24.0438H88.4264V27.0195H91.402V39.0889H88.4264V42.0883ZM73.548 12.2363H76.357V15.1168H73.548V12.2363ZM73.3813 27.1861H76.357V30.1618H73.3814L73.3813 27.1861ZM88.4264 24.0438H91.402L91.402 27.0195H88.4264V24.0438ZM88.4264 39.0889H91.402L91.402 41.9931H88.4264L88.4264 39.0889Z" fill="black"/>
    <path d="M16.0167 69.4465V67.2752H13.8662V47.7686H18.2876V65.0006H22.4681V47.7686H26.8894V67.2752H24.739V69.4465H16.0167ZM13.8662 67.2752H16.0167V69.4465H13.8662V67.2752ZM24.739 67.2752H26.8894V69.3776H24.739V67.2752Z" fill="black"/>
    <path d="M33.3408 69.4465H28.9194V47.7686H41.9426V69.4465H37.5213V52.1972H33.3408V69.4465Z" fill="black"/>
    <path d="M48.394 69.4465H43.9727V47.7686H48.394V69.4465Z" fill="black"/>
    <path d="M59.1466 69.4465H54.7252V52.1972H50.4243V47.7686H63.4475V52.1972H59.1466V69.4465Z" fill="black"/>
    <path d="M76.3503 69.4465H65.4775V47.7686H76.3503V52.1972H69.8989V56.3846H76.3503V60.8132H69.8989V65.0006H76.3503V69.4465Z" fill="black"/>
    <path d="M82.8012 65.0006H86.9817V52.1972H82.8012V65.0006ZM78.3799 69.4465V47.7686H89.2526V49.9226H91.4031V67.2752H89.2526V69.4465H78.3799Z" fill="black"/>
    <path d="M101.956 2.74512H3.31348V78.8424H101.956V2.74512Z" stroke="black" stroke-width="3.99999"/>
  </g>
  <defs>
    <clipPath id="clip0_67_630">
      <rect width="104" height="81" fill="white" transform="translate(0.792969 0.484375)"/>
    </clipPath>
  </defs>
</svg>