<svg width="146" height="146" viewBox="0 0 146 146" fill="none" xmlns="http://www.w3.org/2000/svg">
<g clip-path="url(#clip0_886_3955)">
<path d="M15.207 24.3334H130.79V121.667H15.207V24.3334Z" fill="#FF3D00"/>
<path d="M107.219 90.3314C107.219 92.564 105.419 94.3738 103.195 94.3738C100.972 94.3738 99.1712 92.564 99.1712 90.3314V48.6666H91.3633V97.3333H115.027V82.125H107.219V90.3314Z" fill="white"/>
<path d="M48.5711 90.0515C48.5711 92.3085 46.7917 94.2065 44.5591 94.2065C42.3143 94.1791 40.5106 92.345 40.5228 90.1002V81.6687H32.7148V88.6585C32.7148 92.1655 35.79 97.8108 44.5348 97.8108C53.2796 97.8108 56.3547 93.4886 56.3547 88.6585V48.6666H48.5711V90.0515Z" fill="white"/>
<path d="M77.8815 48.6666H62.2656V97.3333H77.8815C83.7185 97.3333 85.6895 93.446 85.6895 90.961V76.4036C85.6895 74.3261 83.6242 71.6251 80.5491 71.6251C83.6242 71.6251 85.6895 67.3272 85.6895 64.9152V56.6115C85.6895 51.2247 80.8837 48.6666 77.8815 48.6666ZM74.8064 93.373H70.0736V73.7482H74.8064C77.8815 73.7482 77.8815 75.993 77.8815 83.6215C77.8815 91.25 77.8815 93.373 74.8064 93.373ZM74.3258 69.645L70.0736 69.6207V53.2778H74.3258C77.185 53.2778 77.8815 53.88 77.8815 61.5085C77.8815 69.137 77.185 69.645 74.3258 69.645Z" fill="white"/>
<path d="M36.6304 76.0781C39.1702 76.1238 41.269 74.1011 41.3146 71.5643C41.3602 69.0245 39.3375 66.9288 36.7977 66.8802C34.2579 66.8345 32.1592 68.8542 32.1136 71.394V71.467C32.0862 73.9855 34.1089 76.0508 36.6304 76.0781Z" fill="white"/>
<path d="M43.8363 48.6666H29.4219L36.6306 65.408L43.8363 48.6666Z" fill="white"/>
</g>
<defs>
<clipPath id="clip0_886_3955">
<rect width="146" height="146" fill="white"/>
</clipPath>
</defs>
</svg>
