<svg width="30" height="33" viewBox="0 0 30 33" fill="none" xmlns="http://www.w3.org/2000/svg">
<path d="M28.3931 31.6065C28.3931 29.2341 28.3931 28.0478 28.1003 27.0826C27.441 24.9093 25.7403 23.2087 23.5671 22.5494C22.6018 22.2566 21.4156 22.2566 19.0432 22.2566H10.5433C8.17083 22.2566 6.98461 22.2566 6.01937 22.5494C3.8461 23.2087 2.14542 24.9093 1.48616 27.0826C1.19336 28.0478 1.19336 29.2341 1.19336 31.6065M22.4431 8.65675C22.4431 12.8817 19.0181 16.3067 14.7932 16.3067C10.5683 16.3067 7.1433 12.8817 7.1433 8.65675C7.1433 4.43182 10.5683 1.00684 14.7932 1.00684C19.0181 1.00684 22.4431 4.43182 22.4431 8.65675Z" stroke="black" stroke-width="2" stroke-linecap="round" stroke-linejoin="round"/>
</svg>
