<svg width="33" height="33" viewBox="0 0 33 33" fill="none" xmlns="http://www.w3.org/2000/svg">
<path d="M7.75988 28.4268H11.6897C12.2021 28.4268 12.7114 28.4878 13.2081 28.6097L17.3604 29.6188C18.2614 29.8383 19.2 29.8596 20.1104 29.6828L24.7015 28.7896C25.9143 28.5533 27.0299 27.9726 27.9043 27.1221L31.1525 23.9623C32.0801 23.0614 32.0801 21.5997 31.1525 20.6973C30.3173 19.8849 28.9948 19.7935 28.05 20.4824L24.2643 23.2444C23.7221 23.6407 23.0625 23.8541 22.384 23.8541H18.7284L21.0552 23.854C22.3668 23.854 23.4291 22.8205 23.4291 21.5447V21.0829C23.4291 20.0235 22.688 19.0998 21.6319 18.8437L18.0405 17.9703C17.456 17.8286 16.8574 17.757 16.2557 17.757C14.8032 17.757 12.1739 18.9596 12.1739 18.9596L7.75988 20.8055M1.73779 20.1658L1.73779 28.8978C1.73779 29.741 1.73779 30.1626 1.90188 30.4846C2.04622 30.7679 2.27654 30.9982 2.55982 31.1425C2.88187 31.3066 3.30346 31.3066 4.14663 31.3066H5.35104C6.19421 31.3066 6.6158 31.3066 6.93785 31.1426C7.22113 30.9982 7.45145 30.7679 7.59579 30.4846C7.75988 30.1626 7.75988 29.741 7.75988 28.8978V20.1658C7.75988 19.3226 7.75988 18.901 7.59579 18.579C7.45145 18.2957 7.22113 18.0654 6.93785 17.921C6.6158 17.757 6.19422 17.757 5.35105 17.757H4.14663C3.30346 17.757 2.88187 17.757 2.55982 17.921C2.27654 18.0654 2.04622 18.2957 1.90189 18.579C1.73779 18.901 1.73779 19.3226 1.73779 20.1658ZM24.6087 3.59339C23.7102 1.71321 21.6387 0.717135 19.624 1.67854C17.6094 2.63995 16.7511 4.91994 17.5946 6.92145C18.1159 8.15844 19.6095 10.5606 20.6744 12.2152C21.0679 12.8265 21.2646 13.1322 21.552 13.311C21.7984 13.4644 22.107 13.5471 22.3971 13.5375C22.7354 13.5263 23.0586 13.36 23.7051 13.0272C25.4546 12.1268 27.9491 10.7932 29.0191 9.98262C30.7503 8.67101 31.1791 6.26015 29.883 4.42743C28.5869 2.5947 26.327 2.41436 24.6087 3.59339Z" stroke="black" stroke-width="2" stroke-linecap="round" stroke-linejoin="round"/>
</svg>
