<svg xmlns="http://www.w3.org/2000/svg" version="1.1" viewBox="-5.0 -10.0 110.0 135.0">
 <g>
  <path fill="#EAAF20" d="m84.605 55.523h-9.8281c-0.33594 0-0.60547-0.27344-0.60547-0.60547v-9.8281c0-0.33594 0.27344-0.60547 0.60547-0.60547h9.8281c0.33594 0 0.60547 0.27344 0.60547 0.60547v9.8281c0 0.33203-0.26953 0.60547-0.60547 0.60547zm-9.2227-1.2148h8.6172v-8.6172h-8.6172z"/>
  <path fill="#EAAF20" d="m64.945 55.523h-9.8281c-0.33594 0-0.60547-0.27344-0.60547-0.60547v-9.8281c0-0.33594 0.27344-0.60547 0.60547-0.60547h9.8281c0.33594 0 0.60547 0.27344 0.60547 0.60547v9.8281c0 0.33203-0.26953 0.60547-0.60547 0.60547zm-9.2227-1.2148h8.6172v-8.6172h-8.6172z"/>
  <path fill="#EAAF20" d="m55.117 55.523h-9.8281c-0.33594 0-0.60547-0.27344-0.60547-0.60547v-9.8281c0-0.33594 0.27344-0.60547 0.60547-0.60547h9.8281c0.33594 0 0.60547 0.27344 0.60547 0.60547 0 0.33594-0.27344 0.60547-0.60547 0.60547h-9.2227v8.6172h9.2227c0.33594 0 0.60547 0.27344 0.60547 0.60547 0 0.32812-0.27344 0.60547-0.60547 0.60547z"/>
  <path fill="#EAAF20" d="m25.625 55.523h-9.832c-0.33594 0-0.60547-0.27344-0.60547-0.60547v-9.8281c0-0.33594 0.27344-0.60547 0.60547-0.60547h9.8281c0.33594 0 0.60547 0.27344 0.60547 0.60547 0 0.33594-0.27344 0.60547-0.60547 0.60547l-9.2188-0.003906v8.6172h9.2227c0.33594 0 0.60547 0.27344 0.60547 0.60547 0 0.33203-0.26953 0.60938-0.60547 0.60938z"/>
  <path fill="#EAAF20" d="m35.457 55.523h-9.8281c-0.33594 0-0.60547-0.27344-0.60547-0.60547v-9.8281c0-0.33594 0.27344-0.60547 0.60547-0.60547h9.8281c0.33594 0 0.60547 0.27344 0.60547 0.60547v9.8281c0 0.33203-0.27344 0.60547-0.60547 0.60547zm-9.2266-1.2148h8.6172v-8.6172h-8.6172z"/>
  <path fill="#EAAF20" d="m74.777 65.352h-9.8281c-0.33594 0-0.60547-0.27344-0.60547-0.60547v-9.8281c0-0.33594 0.27344-0.60547 0.60547-0.60547h9.8281c0.33594 0 0.60547 0.27344 0.60547 0.60547v9.8281c0 0.33203-0.26953 0.60547-0.60547 0.60547zm-9.2266-1.2148h8.6172v-8.6172h-8.6172z"/>
  <path fill="#EAAF20" d="m64.945 75.184h-9.8281c-0.33594 0-0.60547-0.27344-0.60547-0.60547v-9.8281c0-0.33594 0.27344-0.60547 0.60547-0.60547h9.8281c0.33594 0 0.60547 0.27344 0.60547 0.60547v9.8281c0 0.33203-0.26953 0.60547-0.60547 0.60547zm-9.2227-1.2188h8.6172v-8.6172h-8.6172z"/>
  <path fill="#EAAF20" d="m55.117 85.012h-9.8281c-0.33594 0-0.60547-0.27344-0.60547-0.60547v-9.8281c0-0.33594 0.27344-0.60547 0.60547-0.60547h9.8281c0.33594 0 0.60547 0.27344 0.60547 0.60547v9.8281c0 0.33203-0.27344 0.60547-0.60547 0.60547zm-9.2227-1.2148h8.6172v-8.6172h-8.6172z"/>
  <path fill="#EAAF20" d="m74.777 45.691h-9.8281c-0.33594 0-0.60547-0.27344-0.60547-0.60547v-9.8281c0-0.33594 0.27344-0.60547 0.60547-0.60547h9.8281c0.33594 0 0.60547 0.27344 0.60547 0.60547v9.8281c0 0.33594-0.26953 0.60547-0.60547 0.60547zm-9.2266-1.2148h8.6172v-8.6172h-8.6172z"/>
  <path fill="#EAAF20" d="m64.945 35.859h-9.8281c-0.33594 0-0.60547-0.27344-0.60547-0.60547v-9.8281c0-0.33594 0.27344-0.60547 0.60547-0.60547h9.8281c0.33594 0 0.60547 0.27344 0.60547 0.60547v9.8281c0 0.33594-0.26953 0.60547-0.60547 0.60547zm-9.2227-1.2109h8.6172v-8.6172h-8.6172z"/>
  <path fill="#EAAF20" d="m55.117 26.031h-9.8281c-0.33594 0-0.60547-0.27344-0.60547-0.60547l-0.003906-9.832c0-0.33594 0.27344-0.60547 0.60547-0.60547h9.8281c0.33594 0 0.60547 0.27344 0.60547 0.60547v9.8281c0.003906 0.33984-0.26953 0.60938-0.60156 0.60938zm-9.2227-1.2148h8.6172v-8.6172h-8.6172z"/>
  <path fill="#EAAF20" d="m45.285 45.691h-9.8281c-0.33594 0-0.60547-0.27344-0.60547-0.60547 0-0.33594 0.27344-0.60547 0.60547-0.60547h9.8281c0.33594 0 0.60547 0.27344 0.60547 0.60547 0 0.33594-0.26953 0.60547-0.60547 0.60547z"/>
  <path fill="#EAAF20" d="m45.285 55.523h-9.8281c-0.33594 0-0.60547-0.27344-0.60547-0.60547 0-0.33594 0.27344-0.60547 0.60547-0.60547h9.8281c0.33594 0 0.60547 0.27344 0.60547 0.60547s-0.26953 0.60547-0.60547 0.60547z"/>
 </g>
</svg>